HIERARCHY
ROOT Hips
{
	OFFSET 0 0 0
	CHANNELS 6 Xposition Yposition Zposition Yrotation Xrotation Zrotation
	JOINT Spine
	{
		OFFSET -0 7.69132 -2.45161
		CHANNELS 3 Yrotation Xrotation Zrotation
		JOINT Spine1
		{
			OFFSET -0 7.43975 0
			CHANNELS 3 Yrotation Xrotation Zrotation
			JOINT Spine2
			{
				OFFSET -0 7.43975 0
				CHANNELS 3 Yrotation Xrotation Zrotation
				JOINT Spine3
				{
					OFFSET -0 7.43975 0
					CHANNELS 3 Yrotation Xrotation Zrotation
					JOINT Neck
					{
						OFFSET -0 13.9329 3.45161
						CHANNELS 3 Yrotation Xrotation Zrotation
						JOINT Head
						{
							OFFSET -0 9.61415 0
							CHANNELS 3 Yrotation Xrotation Zrotation
							End Site
							{
								OFFSET 0 15 0
							}
						}
					}
					JOINT LeftShoulder
					{
						OFFSET 1.60236 2.19729 3.20472
						CHANNELS 3 Yrotation Xrotation Zrotation
						JOINT LeftArm
						{
							OFFSET 17.7845 0 0
							CHANNELS 3 Yrotation Xrotation Zrotation
							JOINT LeftForeArm
							{
								OFFSET 22.4513 0 0
								CHANNELS 3 Yrotation Xrotation Zrotation
								JOINT LeftHand
								{
									OFFSET 20.5515 0 0
									CHANNELS 3 Yrotation Xrotation Zrotation
									JOINT LeftHandThumb1
									{
										OFFSET 4.91385 0 2.72801
										CHANNELS 3 Yrotation Xrotation Zrotation
										JOINT LeftHandThumb2
										{
											OFFSET 3 0 1
											CHANNELS 3 Yrotation Xrotation Zrotation
											JOINT LeftHandThumb3
											{
												OFFSET 2.1 0 0
												CHANNELS 3 Yrotation Xrotation Zrotation
												JOINT LeftHandThumb4
												{
													OFFSET 1.305 0 0
													CHANNELS 3 Yrotation Xrotation Zrotation
													End Site
													{
														OFFSET -0 0 0
													}
												}
											}
										}
									}
									JOINT LeftHandIndex1
									{
										OFFSET 9.07627 0 3.52715
										CHANNELS 3 Yrotation Xrotation Zrotation
										JOINT LeftHandIndex2
										{
											OFFSET 3.5 0 0
											CHANNELS 3 Yrotation Xrotation Zrotation
											JOINT LeftHandIndex3
											{
												OFFSET 2.45 0 0
												CHANNELS 3 Yrotation Xrotation Zrotation
												JOINT LeftHandIndex4
												{
													OFFSET 1.5225 0 0
													CHANNELS 3 Yrotation Xrotation Zrotation
													End Site
													{
														OFFSET -0 0 0
													}
												}
											}
										}
									}
									JOINT LeftHandMiddle1
									{
										OFFSET 9.21121 0 1.12806
										CHANNELS 3 Yrotation Xrotation Zrotation
										JOINT LeftHandMiddle2
										{
											OFFSET 4.6 0 0
											CHANNELS 3 Yrotation Xrotation Zrotation
											JOINT LeftHandMiddle3
											{
												OFFSET 3.22 0 0
												CHANNELS 3 Yrotation Xrotation Zrotation
												JOINT LeftHandMiddle4
												{
													OFFSET 2.001 0 0
													CHANNELS 3 Yrotation Xrotation Zrotation
													End Site
													{
														OFFSET -0 0 0
													}
												}
											}
										}
									}
									JOINT LeftHandRing1
									{
										OFFSET 9.04616 0 -1.27103
										CHANNELS 3 Yrotation Xrotation Zrotation
										JOINT LeftHandRing2
										{
											OFFSET 3.75 0 0
											CHANNELS 3 Yrotation Xrotation Zrotation
											JOINT LeftHandRing3
											{
												OFFSET 2.625 0 0
												CHANNELS 3 Yrotation Xrotation Zrotation
												JOINT LeftHandRing4
												{
													OFFSET 1.63125 0 0
													CHANNELS 3 Yrotation Xrotation Zrotation
													End Site
													{
														OFFSET -0 0 0
													}
												}
											}
										}
									}
									JOINT LeftHandPinky1
									{
										OFFSET 8.58111 0 -3.67011
										CHANNELS 3 Yrotation Xrotation Zrotation
										JOINT LeftHandPinky2
										{
											OFFSET 2.875 0 0
											CHANNELS 3 Yrotation Xrotation Zrotation
											JOINT LeftHandPinky3
											{
												OFFSET 2.0125 0 0
												CHANNELS 3 Yrotation Xrotation Zrotation
												JOINT LeftHandPinky4
												{
													OFFSET 1.25062 0 0
													CHANNELS 3 Yrotation Xrotation Zrotation
													End Site
													{
														OFFSET -0 0 0
													}
												}
											}
										}
									}
								}
							}
						}
					}
					JOINT RightShoulder
					{
						OFFSET -1.60236 2.19729 3.20472
						CHANNELS 3 Yrotation Xrotation Zrotation
						JOINT RightArm
						{
							OFFSET -17.7845 0 0
							CHANNELS 3 Yrotation Xrotation Zrotation
							JOINT RightForeArm
							{
								OFFSET -22.4513 0 0
								CHANNELS 3 Yrotation Xrotation Zrotation
								JOINT RightHand
								{
									OFFSET -20.5515 0 0
									CHANNELS 3 Yrotation Xrotation Zrotation
									JOINT RightHandThumb1
									{
										OFFSET -4.4694 0 0.364316
										CHANNELS 3 Yrotation Xrotation Zrotation
										JOINT RightHandThumb2
										{
											OFFSET -3 0 1
											CHANNELS 3 Yrotation Xrotation Zrotation
											JOINT RightHandThumb3
											{
												OFFSET -2.1 0 0
												CHANNELS 3 Yrotation Xrotation Zrotation
												JOINT RightHandThumb4
												{
													OFFSET -1.305 0 0
													CHANNELS 3 Yrotation Xrotation Zrotation
													End Site
													{
														OFFSET -0 0 0
													}
												}
											}
										}
									}
									JOINT RightHandIndex1
									{
										OFFSET -7.92682 0 1.55071
										CHANNELS 3 Yrotation Xrotation Zrotation
										JOINT RightHandIndex2
										{
											OFFSET -3.5 0 0
											CHANNELS 3 Yrotation Xrotation Zrotation
											JOINT RightHandIndex3
											{
												OFFSET -2.45 0 0
												CHANNELS 3 Yrotation Xrotation Zrotation
												JOINT RightHandIndex4
												{
													OFFSET -1.5225 0 0
													CHANNELS 3 Yrotation Xrotation Zrotation
													End Site
													{
														OFFSET -0 0 0
													}
												}
											}
										}
									}
									JOINT RightHandMiddle1
									{
										OFFSET -8.23226 0 0.386205
										CHANNELS 3 Yrotation Xrotation Zrotation
										JOINT RightHandMiddle2
										{
											OFFSET -4.6 0 0
											CHANNELS 3 Yrotation Xrotation Zrotation
											JOINT RightHandMiddle3
											{
												OFFSET -3.22 0 0
												CHANNELS 3 Yrotation Xrotation Zrotation
												JOINT RightHandMiddle4
												{
													OFFSET -2.001 0 0
													CHANNELS 3 Yrotation Xrotation Zrotation
													End Site
													{
														OFFSET -0 0 0
													}
												}
											}
										}
									}
									JOINT RightHandRing1
									{
										OFFSET -8.23771 0 -0.778302
										CHANNELS 3 Yrotation Xrotation Zrotation
										JOINT RightHandRing2
										{
											OFFSET -3.75 0 0
											CHANNELS 3 Yrotation Xrotation Zrotation
											JOINT RightHandRing3
											{
												OFFSET -2.625 0 0
												CHANNELS 3 Yrotation Xrotation Zrotation
												JOINT RightHandRing4
												{
													OFFSET -1.63125 0 0
													CHANNELS 3 Yrotation Xrotation Zrotation
													End Site
													{
														OFFSET -0 0 0
													}
												}
											}
										}
									}
									JOINT RightHandPinky1
									{
										OFFSET -7.94315 0 -1.94281
										CHANNELS 3 Yrotation Xrotation Zrotation
										JOINT RightHandPinky2
										{
											OFFSET -2.875 0 0
											CHANNELS 3 Yrotation Xrotation Zrotation
											JOINT RightHandPinky3
											{
												OFFSET -2.0125 0 0
												CHANNELS 3 Yrotation Xrotation Zrotation
												JOINT RightHandPinky4
												{
													OFFSET -1.25062 0 0
													CHANNELS 3 Yrotation Xrotation Zrotation
													End Site
													{
														OFFSET -0 0 0
													}
												}
											}
										}
									}
								}
							}
						}
					}
				}
			}
		}
	}
	JOINT LeftUpLeg
	{
		OFFSET 9.61415 -3.20472 3
		CHANNELS 3 Yrotation Xrotation Zrotation
		JOINT LeftLeg
		{
			OFFSET -0 -42.2921 2.2433
			CHANNELS 3 Yrotation Xrotation Zrotation
			JOINT LeftFoot
			{
				OFFSET -0 -34.6503 -2.2433
				CHANNELS 3 Yrotation Xrotation Zrotation
				JOINT LeftToeBase
				{
					OFFSET -0 -8.30332 8.5187
					CHANNELS 3 Yrotation Xrotation Zrotation
					End Site
					{
						OFFSET 0 0 5
					}
				}
			}
		}
	}
	JOINT RightUpLeg
	{
		OFFSET -9.61415 -3.20472 3
		CHANNELS 3 Yrotation Xrotation Zrotation
		JOINT RightLeg
		{
			OFFSET -0 -42.2921 2.2433
			CHANNELS 3 Yrotation Xrotation Zrotation
			JOINT RightFoot
			{
				OFFSET -0 -34.6503 -2.2433
				CHANNELS 3 Yrotation Xrotation Zrotation
				JOINT RightToeBase
				{
					OFFSET -0 -8.30332 8.5187
					CHANNELS 3 Yrotation Xrotation Zrotation
					End Site
					{
						OFFSET 0 0 5
					}
				}
			}
		}
	}
}
MOTION
Frames: 4
Frame Time: 0.0047619
0 89.415849 0 0 0 0 0 0 0 0 0 0 0 0 0 0 0 0 0 0 0 0 0 0 0 0 0 0 0 0 0 0 0 0 0 0 0 0 0 0 0 0 0 0 0 0 0 0 0 0 0 0 0 0 0 0 0 0 0 0 0 0 0 0 0 0 0 0 0 0 0 0 0 0 0 0 0 0 0 0 0 0 0 0 0 0 0 0 0 0 0 0 0 0 0 0 0 0 0 0 0 0 0 0 0 0 0 0 0 0 0 0 0 0 0 0 0 0 0 0 0 0 0 0 0 0 0 0 0 0 0 0 0 0 0 0 0 0 0 0 0 0 0 0 0 0 0 0 0 0 0 0 0 0 0 0 0 0 0 0 0 0 0 0 0 0 0 0 0 0 0 0 0 0 0 0 0 0 0 0 0 0 0 0 0 0 0 0 0 0 0 0
-28.653226 89.301862 8.710701 2.223623 1.867397 -1.570577 -0.280058 -0.570158 0.897512 -0.228298 -0.448539 0.578861 -0.029517 -0.265414 0.256731 0.032222 -0.197632 0.068490 -1.163417 -1.490458 -0.455710 -0.505548 -3.621289 -0.240048 12.207937 1.332064 10.503547 -15.816216 3.862177 2.554706 -7.231276 -3.181880 -0.874949 5.481373 5.778113 -36.887096 23.148167 -2.472653 -0.986683 26.628959 -2.801851 -1.217988 -23.513641 -2.777866 -5.671493 -0.000004 -0.000001 6.216883 -0.000004 -0.000001 6.216883 -0.000004 -0.000000 4.973510 -0.000007 -0.000001 2.486755 0.000007 0.000005 1.847198 0.000007 0.000005 1.847198 0.000021 0.000003 1.477761 0.000006 0.000002 0.738881 0.000020 0.000004 9.297964 0.000020 0.000004 9.297964 0.000013 0.000005 7.438373 0.000009 0.000006 3.719187 -0.000003 0.000000 12.499996 -0.000003 0.000000 12.499996 -0.000005 0.000001 10.000003 0.000005 -0.000001 5.000001 -164.905754 -0.024172 -179.817557 -7.824938 1.014581 -13.718817 9.563455 0.285468 -0.767279 7.418597 0.331818 0.214469 -61.700898 -42.225085 38.567189 1.908443 3.796814 -6.316320 2.158879 4.383842 -7.255441 -52.240017 15.789266 9.069074 -0.000190 -0.000013 -5.581038 -0.000190 -0.000013 -5.581038 -0.000152 0.000005 -4.464827 -0.000076 0.000007 -2.232415 -0.000125 -0.000017 -2.119308 -0.000125 -0.000017 -2.119308 -0.000101 -0.000007 -1.695446 -0.000049 -0.000005 -0.847723 0.000035 0.000006 6.982272 0.000035 0.000006 6.982272 0.000025 0.000008 5.585816 0.000014 0.000003 2.792914 -0.000258 -0.000011 22.564809 -0.000258 -0.000011 22.564809 -0.000191 -0.000086 18.051850 -0.000073 -0.000068 9.025926 23.148167 -2.472653 -0.986683 8.180116 7.419164 8.149592 0.000000 -2.560336 0.000000 -0.852683 0.558061 -2.941623 0.000000 -9.672387 0.000000 -8.756547 8.726225 0.103589 0.000000 -3.127531 0.000000 1.055165 2.363692 -1.987897 0.000000 -10.938881 0.000000
-28.653903 89.301489 8.721797 2.218750 1.871889 -1.576235 -0.279293 -0.568605 0.889066 -0.227895 -0.457608 0.580560 -0.033762 -0.289855 0.271538 0.027076 -0.167397 0.073888 -1.163811 -1.492591 -0.481412 -0.507049 -3.633944 -0.232321 12.197022 1.324600 10.488433 -15.765430 3.876140 2.562515 -7.265290 -3.148210 -0.891867 5.525298 5.763835 -36.879431 23.148167 -2.472653 -0.986683 26.628959 -2.801851 -1.217988 -23.513641 -2.777866 -5.671493 -0.000004 -0.000001 6.216883 -0.000004 -0.000001 6.216883 -0.000004 -0.000000 4.973510 -0.000007 -0.000001 2.486755 0.000007 0.000005 1.847198 0.000007 0.000005 1.847198 0.000021 0.000003 1.477761 0.000006 0.000002 0.738881 0.000020 0.000004 9.297964 0.000020 0.000004 9.297964 0.000013 0.000005 7.438373 0.000009 0.000006 3.719187 -0.000003 0.000000 12.499996 -0.000003 0.000000 12.499996 -0.000005 0.000001 10.000003 0.000005 -0.000001 5.000001 -164.905754 -0.024172 -179.817557 -7.809091 1.024067 -13.732563 9.582051 0.302676 -0.764353 7.408744 0.394481 0.216383 -61.788247 -42.272461 38.674631 1.908443 3.796814 -6.316320 2.158879 4.383842 -7.255441 -52.240017 15.789266 9.069074 -0.000190 -0.000013 -5.581038 -0.000190 -0.000013 -5.581038 -0.000152 0.000005 -4.464827 -0.000076 0.000007 -2.232415 -0.000125 -0.000017 -2.119308 -0.000125 -0.000017 -2.119308 -0.000101 -0.000007 -1.695446 -0.000049 -0.000005 -0.847723 0.000035 0.000006 6.982272 0.000035 0.000006 6.982272 0.000025 0.000008 5.585816 0.000014 0.000003 2.792914 -0.000258 -0.000011 22.564809 -0.000258 -0.000011 22.564809 -0.000191 -0.000086 18.051850 -0.000073 -0.000068 9.025926 23.148167 -2.472653 -0.986683 8.207130 7.421825 8.161049 0.000000 -2.566796 0.000000 -0.883872 0.544584 -2.963457 0.000000 -9.653796 0.000000 -8.719159 8.728772 0.110166 0.000000 -3.126899 0.000000 1.023798 2.355325 -1.946994 0.000000 -10.981898 0.000000
-28.649689 89.299774 8.733386 2.199174 1.877226 -1.572051 -0.270795 -0.581210 0.889997 -0.219831 -0.466344 0.577561 -0.035000 -0.261892 0.262444 0.025955 -0.185197 0.066883 -1.175757 -1.530757 -0.473554 -0.512026 -3.582981 -0.226263 12.210418 1.332101 10.510820 -15.766741 3.874937 2.545331 -7.279066 -3.121956 -0.876393 5.358013 5.752840 -36.939541 23.238201 -2.527818 -1.010524 26.732845 -2.864095 -1.247588 -23.520614 -2.775875 -5.668744 -0.000001 -0.000007 6.227362 -0.000001 -0.000007 6.227362 -0.000013 -0.000003 4.981893 0.000007 -0.000003 2.490945 0.000004 0.000007 1.835652 0.000004 0.000007 1.835652 0.000006 0.000006 1.468522 0.000015 0.000002 0.734261 0.000012 0.000006 9.285396 0.000012 0.000006 9.285396 0.000005 0.000007 7.428317 0.000003 0.000005 3.714161 0.000007 -0.000002 12.499999 0.000007 -0.000002 12.499999 -0.000011 0.000001 10.000003 -0.000002 -0.000001 4.999997 -164.905849 -0.024171 -179.817558 -7.801059 1.029897 -13.732487 9.585393 0.314902 -0.747964 7.421923 0.402209 0.216696 -61.769176 -42.230390 38.561527 1.915250 3.766031 -6.274232 2.167248 4.348399 -7.207038 -52.245925 15.801562 9.047709 -0.000058 -0.000002 -5.524123 -0.000058 -0.000002 -5.524123 -0.000042 0.000000 -4.419298 -0.000022 0.000002 -2.209648 -0.000040 -0.000004 -2.072339 -0.000040 -0.000004 -2.072339 -0.000029 -0.000001 -1.657870 -0.000013 -0.000002 -0.828932 0.000008 0.000002 6.968806 0.000008 0.000002 6.968806 0.000007 0.000002 5.575041 0.000004 0.000003 2.787521 -0.000079 -0.000004 22.633336 -0.000079 -0.000004 22.633336 -0.000054 -0.000024 18.106680 -0.000015 -0.000018 9.053330 23.238201 -2.527818 -1.010524 8.239174 7.423477 8.151702 0.000000 -2.559729 0.000000 -0.887348 0.534375 -2.906438 0.000000 -9.704000 0.000000 -8.697139 8.734629 0.105087 0.000000 -3.139269 0.000000 1.012187 2.347427 -1.972709 0.000000 -10.970517 0.000000
